# Object Export From Tinkercad Server 2015

mtllib obj.mtl

o obj_0
v 18.3551 		52.8601 		54
v 18.3551 		55.9556 		54
v 18.3551 		55.9556 		52.903
v 18.3551 		52.8601 		52.903
v 18.3551 		55.9556 		52.9
v 18.3551 		52.8601 		52.9
v 15.867 		57.533 		16
v 15.867 		52.733 		16
v 18.3551 		55.9556 		18.098
v 18.3551 		55.9556 		16
v 18.3551 		52.8601 		18.098
v 18.3551 		52.8601 		16
v 15.867 		52.0317 		0
v 18.3551 		55.9556 		18.1
v 18.3551 		52.8601 		18.1
v 18.0111 		52.733 		16
v 18.0111 		57.533 		16
v 18.0111 		57.533 		2.2137
v 18.0111 		57.134 		2.5163
v 18.0111 		57.0438 		2.5618
v 18.0111 		56.502 		2.8348
v 18.0111 		55.828 		3.0304
v 18.0111 		55.7446 		3.0382
v 18.0111 		55.133 		3.0963
v 18.0111 		55.0513 		3.0886
v 18.0111 		54.438 		3.0304
v 18.0111 		53.764 		2.8348
v 18.0111 		53.6807 		2.7928
v 18.0111 		53.132 		2.5163
v 18.0111 		53.0474 		2.4522
v 18.0111 		52.733 		2.2138
v 15.867 		57.134 		0.6108
v 15.867 		57.2645 		0.5117
v 15.867 		57.533 		0.3084
v 15.867 		56.502 		0.9295
v 15.867 		56.6565 		0.8516
v 15.867 		55.828 		1.125
v 15.867 		55.133 		1.1907
v 15.867 		55.3136 		1.1735
v 15.867 		54.438 		1.125
v 15.867 		54.6176 		1.1421
v 15.867 		53.764 		0.9295
v 15.867 		53.132 		0.6108
v 15.867 		53.2815 		0.6861
v 15.867 		52.733 		0.3085
v 17.518 		57.533 		1.7755
v 22.5679 		94.4606 		54
v 22.1312 		92.4513 		54
v 20.8574 		85.7796 		54
v 20.5222 		83.691 		54
v 21.5497 		89.6492 		54
v 20.0803 		80.7738 		54
v 19.3461 		74.593 		54
v 19.0513 		71.6181 		54
v 18.6234 		65.3286 		54
v 18.4739 		62.2754 		54
v 19.5813 		76.7786 		54
v 18.7495 		67.5303 		54
v 21.5497 		89.6492 		18.1
v 22.1312 		92.4513 		18.1
v 20.0803 		80.7738 		18.1
v 20.5222 		83.691 		18.1
v 22.5679 		94.4606 		18.1
v 20.8574 		85.7796 		18.1
v 23.1014 		77.9935 		0
v 22.8463 		95.633 		18.1
v 16.2705 		59.632 		3.38
v 20.967 		95.294 		18.1
v 15.867 		61.4712 		54
v 21.0172 		95.633 		18.1
v 19.0513 		71.6181 		18.1
v 19.3461 		74.593 		18.1
v 18.4739 		62.2754 		18.1
v 18.6234 		65.3286 		18.1
v 22.1312 		92.4513 		52.903
v 21.5497 		89.6492 		52.903
v 19.5813 		76.7786 		18.1
v 16.1467 		59.203 		3.68
v 18.7495 		67.5303 		18.1
v 20.5222 		83.691 		52.903
v 20.0803 		80.7738 		52.903
v 16.0399 		58.833 		4.05
v 22.5679 		94.4606 		52.903
v 15.9533 		58.533 		4.479
v 15.8895 		58.312 		4.953
v 20.8574 		85.7796 		52.903
v 15.867 		58.176 		5.459
v 15.867 		58.2342 		5.2423
v 18.1519 		58.133 		6.0032
v 17.2653 		70.2877 		18.1
v 17.1735 		70.2971 		45.003
v 17.1735 		70.2971 		24.998
v 15.8763 		61.534 		24.998
v 15.8763 		61.534 		45.003
v 21.0172 		95.633 		52.9
v 20.967 		95.294 		52.9
v 19.3461 		74.593 		52.903
v 19.0513 		71.6181 		52.903
v 17.1735 		61.534 		45.003
v 17.1735 		61.534 		24.998
v 18.6234 		65.3286 		52.903
v 18.4739 		62.2754 		52.903
v 19.5813 		76.7786 		52.903
v 15.867 		58.133 		6.0032
v 17.2653 		70.2877 		52.9
v 22.1312 		92.4513 		52.9
v 21.5497 		89.6492 		52.9
v 20.5222 		83.691 		52.9
v 20.0803 		80.7738 		52.9
v 22.5679 		94.4606 		52.9
v 20.8574 		85.7796 		52.9
v 16.156 		52.733 		0.5653
v 22.8463 		95.633 		52.9
v 18.7495 		67.5303 		52.903
v 19.3461 		74.593 		52.9
v 19.0513 		71.6181 		52.9
v 18.6234 		65.3286 		52.9
v 18.4739 		62.2754 		52.9
v 19.5813 		76.7786 		52.9
v 18.7495 		67.5303 		52.9
v 17.2644 		70.29 		52.903
v 24.133 		82.133 		0.2984
v 22.7659 		82.133 		0.2984
v 22.7659 		82.133 		0
v 24.133 		82.133 		0
v 15.867 		58.2342 		0
v 16.4074 		60.106 		3.159
v 16.7309 		61.2266 		2.9861
v 16.7038 		61.133 		2.978
v 16.5534 		60.612 		3.023
v 18.6436 		60.106 		3.159
v 21.5497 		89.6492 		16
v 22.1312 		92.4513 		16
v 18.5255 		59.632 		3.38
v 20.0803 		80.7738 		16
v 20.5222 		83.691 		16
v 18.4185 		59.203 		3.68
v 18.3263 		58.833 		4.05
v 22.5679 		94.4606 		16
v 20.8574 		85.7796 		16
v 18.2516 		58.533 		4.479
v 21.4272 		21.3016 		18.1
v 20.7344 		25.1738 		18.1
v 18.1965 		58.312 		4.953
v 18.1626 		58.176 		5.459
v 18.8995 		61.133 		2.978
v 22.8463 		14.633 		18.1
v 18.9229 		61.2266 		2.9861
v 22.4112 		16.465 		18.1
v 18.7697 		60.612 		3.023
v 20.967 		14.9719 		18.1
v 21.0172 		14.633 		18.1
v 18.6951 		43.4721 		18.1
v 18.5463 		46.5124 		18.1
v 19.4914 		34.2065 		18.1
v 19.1954 		37.1939 		18.1
v 18.4559 		48.7278 		18.1
v 19.0513 		71.6181 		16
v 19.3461 		74.593 		16
v 18.9968 		39.3858 		18.1
v 18.4739 		62.2754 		16
v 18.6234 		65.3286 		16
v 19.9917 		30.2015 		18.1
v 19.5813 		76.7786 		16
v 18.7495 		67.5303 		16
v 18.3728 		58.133 		16
v 17.2653 		39.9783 		18.1
v 15.867 		61.4712 		16
v 15.867 		58.133 		16
v 18.1519 		58.133 		16
v 17.1735 		39.9688 		24.998
v 17.1735 		39.9688 		45.003
v 15.8763 		48.732 		24.998
v 21.5497 		89.6492 		18.098
v 15.8763 		48.732 		45.003
v 22.1312 		92.4513 		18.098
v 20.0803 		80.7738 		18.098
v 20.5222 		83.691 		18.098
v 22.5679 		94.4606 		18.098
v 17.1735 		48.732 		45.003
v 17.1735 		48.732 		24.998
v 20.8574 		85.7796 		18.098
v 17.2653 		39.9783 		52.9
v 20.2918 		28.0959 		52.9
v 20.2918 		28.0959 		18.1
v 20.7344 		25.1738 		52.9
v 21.8272 		19.2796 		52.9
v 21.8272 		19.2796 		18.1
v 22.4112 		16.465 		52.9
v 24.133 		28.133 		0
v 23.1014 		32.2725 		0
v 22.7659 		28.133 		0
v 22.8586 		13.533 		54
v 22.8586 		13.533 		16
v 21.0868 		13.533 		16
v 21.4272 		21.3016 		52.9
v 21.0868 		13.533 		54
v 22.8586 		14.581 		54
v 22.8463 		14.633 		52.9
v 22.8586 		14.581 		16
v 20.967 		14.9719 		52.9
v 22.847 		14.63 		18.098
v 22.847 		14.63 		52.903
v 16.4074 		50.16 		3.159
v 16.0399 		51.433 		4.05
v 16.1467 		51.063 		3.68
v 21.0172 		14.633 		52.9
v 21.0176 		14.63 		18.098
v 21.0176 		14.63 		52.903
v 18.9229 		49.0393 		2.9861
v 16.7309 		49.0393 		2.9861
v 24.133 		28.133 		0.2984
v 22.7659 		28.133 		0.2984
v 22.4112 		16.465 		54
v 18.7697 		49.654 		3.023
v 22.4112 		16.465 		52.903
v 18.8995 		49.133 		2.978
v 20.2918 		28.0959 		54
v 20.7344 		25.1738 		54
v 16.5534 		49.654 		3.023
v 21.8272 		19.2796 		54
v 16.7038 		49.133 		2.978
v 21.4272 		21.3016 		54
v 18.5463 		46.5124 		54
v 18.6951 		43.4721 		54
v 19.1954 		37.1939 		54
v 19.4914 		34.2065 		54
v 18.1519 		52.133 		6.0032
v 18.4559 		48.7278 		54
v 18.9968 		39.3858 		54
v 19.9917 		30.2015 		54
v 15.867 		52.133 		6.0032
v 15.867 		48.7948 		54
v 18.1519 		52.133 		16
v 15.867 		52.133 		16
v 20.2918 		28.0959 		52.903
v 20.7344 		25.1738 		52.903
v 21.8272 		19.2796 		52.903
v 21.4272 		21.3016 		52.903
v 15.867 		52.73 		16
v 18.3728 		52.133 		16
v 18.5463 		46.5124 		52.903
v 18.6951 		43.4721 		52.903
v 19.1954 		37.1939 		52.903
v 19.4914 		34.2065 		52.903
v 18.4559 		48.7278 		52.903
v 18.9968 		39.3858 		52.903
v 18.1514 		52.135 		16
v 19.9917 		30.2015 		52.903
v 18.0031 		52.73 		16
v 16.6283 		52.73 		0
v 15.867 		52.73 		0
v 15.867 		52.135 		5.98
v 17.2644 		39.976 		52.903
v 18.1514 		52.135 		5.98
v 19.0513 		71.6181 		18.098
v 19.3461 		74.593 		18.098
v 18.4739 		62.2754 		18.098
v 18.6234 		65.3286 		18.098
v 19.5813 		76.7786 		18.098
v 18.7495 		67.5303 		18.098
v 17.2644 		70.29 		18.098
v 18.3727 		58.1273 		54
v 18.3727 		58.1273 		52.903
v 18.3727 		58.1273 		52.9
v 15.867 		57.536 		16
v 18.3727 		58.1273 		18.098
v 18.3727 		58.1273 		16
v 18.3727 		58.1273 		18.1
v 18.1514 		58.131 		16
v 18.0031 		57.536 		16
v 15.867 		57.536 		0
v 16.6283 		57.536 		0
v 15.867 		58.131 		5.98
v 18.1514 		58.131 		5.98
v 18.0031 		57.536 		2.1732
v 18.5463 		46.5124 		52.9
v 18.6951 		43.4721 		52.9
v 19.1954 		37.1939 		52.9
v 19.4914 		34.2065 		52.9
v 18.4559 		48.7278 		52.9
v 18.9968 		39.3858 		52.9
v 19.9917 		30.2015 		52.9
v 22.4112 		16.465 		16
v 15.867 		52.09 		5.459
v 22.4112 		16.465 		18.098
v 22.3991 		16.5235 		17
v 22.3991 		16.5235 		16.4
v 15.867 		52.0317 		5.2423
v 15.8895 		51.954 		4.953
v 15.9533 		51.733 		4.479
v 16.2705 		50.634 		3.38
v 18.1626 		52.09 		5.459
v 18.1965 		51.954 		4.953
v 18.2516 		51.733 		4.479
v 18.3263 		51.433 		4.05
v 18.4185 		51.063 		3.68
v 18.5255 		50.634 		3.38
v 18.6436 		50.16 		3.159
v 22.4414 		16.564 		17
v 22.4414 		16.564 		16.4
v 20.7344 		25.1738 		16
v 20.2918 		28.0959 		16
v 21.8272 		19.2796 		16
v 21.4272 		21.3016 		16
v 18.0031 		52.73 		2.1732
v 18.6951 		43.4721 		16
v 18.5463 		46.5124 		16
v 19.4914 		34.2065 		16
v 19.1954 		37.1939 		16
v 18.4559 		48.7278 		16
v 18.9968 		39.3858 		16
v 19.9917 		30.2015 		16
v 15.867 		48.7948 		16
v 22.8586 		96.733 		16
v 22.8586 		96.733 		54
v 20.7344 		25.1738 		18.098
v 20.2918 		28.0959 		18.098
v 21.0868 		96.733 		54
v 21.0868 		96.733 		16
v 21.8272 		19.2796 		18.098
v 22.02 		18.3504 		16.4
v 22.02 		18.3504 		17
v 22.8586 		95.6849 		54
v 21.4272 		21.3016 		18.098
v 22.8586 		95.6849 		16
v 22.847 		95.636 		18.098
v 22.847 		95.636 		52.903
v 18.6951 		43.4721 		18.098
v 18.5463 		46.5124 		18.098
v 19.4914 		34.2065 		18.098
v 19.1954 		37.1939 		18.098
v 21.0176 		95.636 		52.903
v 21.0176 		95.636 		18.098
v 18.4559 		48.7278 		18.098
v 18.9968 		39.3858 		18.098
v 19.9917 		30.2015 		18.098
v 17.2644 		39.976 		18.098
v 22.0625 		18.391 		16.4
v 22.0625 		18.391 		17
# 340 vertices

g group_0_40919

usemtl color_40919
s 0

f 301 	300 	288
f 288 	300 	287
f 340 	339 	323
f 323 	339 	322
f 300 	340 	323
f 323 	287 	300
f 288 	322 	301
f 301 	322 	339
f 339 	340 	301
f 301 	340 	300
# 10 faces

g group_0_2829873

usemtl color_2829873
s 0

f 3 	263 	2
f 3 	2 	4
f 4 	2 	1
f 254 	121 	3
f 9 	11 	10
f 10 	11 	12
f 335 	11 	338
f 11 	9 	338
f 16 	10 	12
f 10 	16 	17
f 17 	20 	19
f 17 	21 	20
f 19 	18 	17
f 17 	22 	21
f 17 	24 	23
f 17 	23 	22
f 16 	27 	26
f 16 	25 	24
f 16 	28 	27
f 30 	16 	31
f 16 	26 	25
f 16 	29 	28
f 30 	29 	16
f 24 	17 	16
f 32 	36 	7
f 33 	32 	7
f 7 	34 	33
f 36 	35 	7
f 39 	7 	37
f 35 	37 	7
f 7 	39 	38
f 38 	8 	7
f 38 	41 	8
f 42 	44 	8
f 40 	42 	8
f 41 	40 	8
f 44 	43 	8
f 45 	8 	43
f 19 	46 	18
f 21 	35 	20
f 37 	35 	21
f 319 	49 	51
f 319 	50 	49
f 39 	23 	24
f 319 	52 	50
f 41 	25 	26
f 25 	41 	38
f 38 	24 	25
f 40 	26 	27
f 69 	56 	55
f 69 	55 	58
f 42 	27 	28
f 28 	44 	42
f 69 	53 	57
f 69 	57 	52
f 29 	44 	28
f 69 	54 	53
f 112 	30 	31
f 29 	30 	112
f 112 	43 	29
f 46 	33 	34
f 46 	19 	32
f 32 	33 	46
f 36 	20 	35
f 36 	32 	19
f 19 	20 	36
f 21 	22 	37
f 23 	39 	37
f 37 	22 	23
f 24 	38 	39
f 41 	26 	40
f 75 	48 	76
f 76 	48 	51
f 80 	50 	81
f 81 	50 	52
f 83 	47 	75
f 75 	47 	48
f 86 	49 	80
f 80 	49 	50
f 328 	324 	47
f 47 	83 	328
f 76 	51 	86
f 86 	51 	49
f 333 	76 	86
f 333 	75 	76
f 333 	83 	75
f 81 	52 	103
f 93 	168 	94
f 69 	91 	94
f 94 	168 	69
f 80 	81 	333
f 86 	80 	333
f 97 	53 	98
f 98 	53 	54
f 99 	91 	100
f 100 	91 	92
f 100 	92 	93
f 99 	94 	91
f 101 	55 	102
f 102 	55 	56
f 99 	100 	94
f 94 	100 	93
f 103 	57 	97
f 97 	57 	53
f 27 	42 	40
f 29 	43 	44
f 112 	45 	43
f 114 	58 	101
f 101 	58 	55
f 57 	103 	52
f 262 	68 	96
f 98 	54 	114
f 114 	54 	58
f 92 	91 	319
f 121 	262 	96
f 97 	98 	121
f 103 	97 	121
f 81 	103 	121
f 121 	333 	81
f 101 	102 	121
f 114 	101 	121
f 98 	114 	121
f 69 	319 	91
f 96 	333 	121
f 132 	140 	320
f 320 	133 	132
f 320 	139 	133
f 320 	140 	136
f 135 	168 	320
f 320 	136 	135
f 159 	158 	168
f 164 	159 	168
f 135 	164 	168
f 162 	161 	168
f 165 	162 	168
f 158 	165 	168
f 170 	169 	168
f 161 	170 	168
f 161 	166 	170
f 233 	175 	172
f 176 	174 	133
f 133 	174 	132
f 314 	173 	175
f 175 	233 	314
f 178 	177 	136
f 136 	177 	135
f 176 	133 	179
f 179 	133 	139
f 172 	180 	171
f 171 	180 	181
f 178 	136 	182
f 182 	136 	140
f 181 	173 	171
f 180 	172 	175
f 181 	180 	173
f 173 	180 	175
f 182 	140 	174
f 174 	140 	132
f 178 	182 	334
f 177 	178 	334
f 194 	193 	197
f 194 	197 	195
f 200 	194 	195
f 200 	198 	193
f 200 	193 	194
f 198 	200 	202
f 202 	203 	198
f 208 	203 	202
f 208 	152 	207
f 207 	209 	208
f 209 	203 	208
f 197 	193 	198
f 198 	214 	197
f 214 	198 	203
f 203 	216 	214
f 209 	207 	201
f 201 	254 	209
f 216 	203 	209
f 197 	219 	218
f 197 	223 	219
f 197 	221 	223
f 233 	226 	230
f 233 	225 	224
f 227 	226 	233
f 233 	231 	227
f 197 	218 	231
f 224 	229 	233
f 230 	225 	233
f 233 	229 	1
f 236 	218 	237
f 237 	218 	219
f 221 	216 	238
f 240 	235 	233
f 235 	314 	233
f 4 	1 	229
f 218 	236 	231
f 239 	223 	238
f 238 	223 	221
f 262 	121 	254
f 3 	4 	254
f 4 	246 	254
f 237 	219 	239
f 239 	219 	223
f 236 	237 	209
f 209 	254 	236
f 233 	69 	8
f 69 	7 	8
f 241 	12 	11
f 11 	335 	241
f 237 	239 	209
f 242 	224 	243
f 243 	224 	225
f 244 	226 	245
f 245 	226 	227
f 246 	229 	242
f 242 	229 	224
f 247 	230 	244
f 244 	230 	226
f 248 	16 	12
f 12 	241 	248
f 249 	231 	236
f 250 	240 	8
f 8 	16 	250
f 248 	250 	16
f 241 	234 	248
f 4 	229 	246
f 243 	225 	247
f 247 	225 	230
f 243 	247 	254
f 242 	243 	254
f 254 	246 	242
f 245 	227 	249
f 249 	227 	231
f 177 	164 	135
f 254 	249 	236
f 254 	245 	249
f 254 	244 	245
f 247 	244 	254
f 334 	70 	68
f 182 	174 	334
f 334 	262 	177
f 257 	256 	159
f 159 	256 	158
f 231 	233 	197
f 259 	258 	162
f 162 	258 	161
f 197 	214 	221
f 257 	159 	260
f 260 	159 	164
f 216 	221 	214
f 262 	256 	257
f 259 	162 	261
f 261 	162 	165
f 239 	238 	209
f 262 	259 	261
f 262 	258 	259
f 260 	164 	177
f 238 	216 	209
f 262 	257 	260
f 197 	233 	172
f 261 	165 	256
f 256 	165 	158
f 262 	260 	177
f 262 	261 	256
f 258 	166 	161
f 92 	320 	168
f 93 	92 	168
f 69 	263 	56
f 52 	319 	69
f 58 	54 	69
f 266 	7 	69
f 263 	3 	264
f 121 	264 	3
f 263 	264 	102
f 102 	56 	263
f 121 	102 	264
f 69 	168 	169
f 69 	169 	266
f 9 	10 	267
f 267 	10 	268
f 166 	258 	267
f 267 	268 	166
f 9 	267 	262
f 262 	338 	9
f 267 	258 	262
f 254 	338 	262
f 170 	166 	268
f 268 	10 	17
f 268 	270 	170
f 268 	17 	270
f 17 	7 	271
f 271 	7 	266
f 270 	17 	271
f 7 	17 	18
f 18 	46 	7
f 46 	34 	7
f 2 	69 	233
f 233 	1 	2
f 69 	2 	263
f 195 	284 	200
f 284 	288 	287
f 287 	286 	284
f 202 	200 	284
f 284 	286 	202
f 208 	202 	286
f 338 	201 	151
f 208 	338 	151
f 151 	152 	208
f 318 	338 	208
f 195 	305 	304
f 195 	303 	302
f 302 	305 	195
f 31 	16 	8
f 314 	311 	308
f 8 	112 	31
f 313 	303 	195
f 112 	8 	45
f 314 	307 	312
f 314 	309 	313
f 314 	310 	309
f 314 	312 	310
f 313 	195 	314
f 308 	307 	314
f 234 	311 	314
f 234 	241 	311
f 314 	235 	234
f 8 	240 	233
f 320 	319 	315
f 315 	319 	316
f 318 	317 	303
f 303 	317 	302
f 48 	47 	319
f 323 	322 	304
f 304 	321 	323
f 319 	47 	324
f 51 	48 	319
f 324 	316 	319
f 321 	304 	325
f 325 	304 	305
f 320 	315 	326
f 325 	305 	317
f 317 	305 	302
f 320 	326 	139
f 315 	316 	326
f 326 	316 	324
f 139 	326 	327
f 327 	179 	139
f 208 	321 	325
f 324 	328 	327
f 326 	324 	327
f 328 	83 	333
f 328 	333 	327
f 208 	286 	321
f 208 	325 	317
f 174 	176 	334
f 171 	195 	197
f 334 	327 	333
f 320 	92 	319
f 330 	329 	308
f 308 	329 	307
f 332 	331 	310
f 310 	331 	309
f 334 	95 	70
f 96 	95 	333
f 334 	333 	95
f 68 	262 	334
f 330 	308 	335
f 335 	308 	311
f 179 	327 	334
f 176 	179 	334
f 332 	310 	336
f 336 	310 	312
f 337 	318 	313
f 313 	318 	303
f 335 	311 	241
f 338 	329 	330
f 336 	312 	329
f 329 	312 	307
f 330 	335 	338
f 337 	313 	331
f 331 	313 	309
f 332 	336 	338
f 338 	331 	332
f 337 	331 	338
f 338 	318 	337
f 208 	317 	318
f 197 	172 	171
f 171 	173 	314
f 314 	195 	171
f 254 	201 	338
f 336 	329 	338
f 321 	286 	323
f 323 	286 	287
f 195 	304 	284
f 284 	304 	322
f 322 	288 	284
# 396 faces

g group_0_6383466

usemtl color_6383466
s 0

f 183 	6 	5
f 167 	90 	14
f 14 	5 	15
f 15 	5 	6
f 269 	5 	14
f 281 	15 	6
f 68 	70 	63
f 70 	66 	63
f 59 	64 	68
f 60 	59 	68
f 63 	60 	68
f 90 	68 	61
f 62 	61 	68
f 64 	62 	68
f 61 	77 	90
f 90 	79 	74
f 74 	73 	90
f 71 	79 	90
f 72 	71 	90
f 77 	72 	90
f 60 	106 	59
f 59 	106 	107
f 62 	108 	61
f 61 	108 	109
f 63 	110 	60
f 60 	110 	106
f 64 	111 	62
f 62 	111 	108
f 110 	63 	113
f 113 	63 	66
f 111 	64 	107
f 107 	64 	59
f 109 	77 	61
f 72 	115 	71
f 71 	115 	116
f 74 	117 	73
f 73 	117 	118
f 77 	119 	72
f 72 	119 	115
f 79 	120 	74
f 74 	120 	117
f 77 	109 	119
f 120 	79 	116
f 116 	79 	71
f 105 	96 	68
f 68 	90 	105
f 96 	106 	110
f 96 	107 	106
f 96 	111 	107
f 96 	108 	111
f 110 	113 	95
f 96 	105 	109
f 105 	119 	109
f 110 	95 	96
f 105 	116 	115
f 105 	117 	120
f 105 	118 	117
f 109 	108 	96
f 115 	119 	105
f 105 	120 	116
f 105 	265 	118
f 149 	147 	152
f 149 	152 	151
f 167 	160 	156
f 160 	167 	153
f 153 	167 	154
f 185 	143 	151
f 167 	155 	163
f 167 	156 	155
f 157 	154 	167
f 185 	184 	143
f 143 	184 	186
f 188 	187 	149
f 149 	187 	189
f 184 	185 	163
f 142 	196 	188
f 188 	196 	187
f 196 	142 	186
f 186 	142 	143
f 149 	189 	147
f 147 	189 	199
f 147 	199 	207
f 207 	152 	147
f 183 	281 	6
f 14 	15 	167
f 15 	157 	167
f 105 	90 	167
f 167 	183 	105
f 281 	157 	15
f 5 	265 	105
f 90 	73 	269
f 269 	14 	90
f 269 	265 	5
f 73 	118 	265
f 265 	269 	73
f 201 	186 	184
f 201 	207 	189
f 207 	199 	189
f 201 	196 	186
f 201 	187 	196
f 183 	151 	201
f 184 	183 	201
f 183 	167 	151
f 201 	189 	187
f 154 	277 	153
f 153 	277 	278
f 156 	279 	155
f 155 	279 	280
f 183 	278 	277
f 157 	281 	154
f 154 	281 	277
f 183 	280 	279
f 160 	282 	156
f 156 	282 	279
f 163 	283 	184
f 282 	160 	278
f 278 	160 	153
f 183 	282 	278
f 279 	282 	183
f 283 	163 	280
f 280 	163 	155
f 183 	184 	283
f 283 	280 	183
f 277 	281 	183
f 5 	105 	183
f 66 	70 	95
f 95 	113 	66
f 142 	188 	151
f 188 	149 	151
f 151 	167 	185
f 167 	163 	185
f 143 	142 	151
# 132 faces

g group_0_10988977

usemtl color_10988977
s 0

f 191 	192 	13
f 145 	85 	88
f 123 	122 	124
f 124 	122 	125
f 272 	87 	88
f 272 	274 	87
f 126 	129 	128
f 126 	130 	129
f 126 	127 	130
f 128 	123 	124
f 126 	78 	67
f 126 	82 	78
f 126 	84 	82
f 84 	126 	85
f 85 	126 	88
f 67 	127 	126
f 128 	124 	126
f 276 	137 	138
f 138 	141 	276
f 141 	144 	276
f 276 	134 	137
f 131 	134 	276
f 131 	276 	150
f 276 	146 	150
f 65 	148 	146
f 65 	122 	148
f 146 	276 	65
f 122 	65 	125
f 67 	134 	127
f 127 	134 	131
f 137 	134 	67
f 67 	78 	137
f 78 	82 	138
f 138 	137 	78
f 82 	84 	141
f 141 	138 	82
f 84 	85 	144
f 144 	141 	84
f 145 	144 	85
f 88 	87 	145
f 123 	128 	148
f 148 	122 	123
f 128 	129 	146
f 146 	148 	128
f 150 	146 	129
f 129 	130 	150
f 131 	150 	130
f 13 	251 	191
f 191 	190 	192
f 299 	204 	220
f 213 	212 	210
f 210 	211 	213
f 215 	222 	217
f 211 	210 	217
f 217 	222 	211
f 222 	215 	220
f 251 	306 	191
f 234 	235 	232
f 232 	228 	234
f 251 	13 	252
f 240 	252 	253
f 252 	285 	253
f 285 	252 	289
f 13 	289 	252
f 253 	232 	240
f 232 	235 	240
f 127 	131 	130
f 170 	89 	104
f 170 	104 	169
f 126 	124 	65
f 273 	272 	126
f 88 	126 	272
f 104 	274 	266
f 266 	169 	104
f 274 	272 	266
f 144 	145 	276
f 271 	276 	275
f 89 	270 	271
f 145 	87 	275
f 275 	104 	89
f 87 	274 	275
f 275 	274 	104
f 276 	271 	266
f 89 	170 	270
f 271 	275 	89
f 145 	275 	276
f 266 	272 	273
f 273 	276 	266
f 273 	65 	276
f 212 	213 	190
f 190 	213 	192
f 13 	291 	290
f 290 	289 	13
f 13 	206 	205
f 292 	206 	13
f 205 	291 	13
f 13 	220 	204
f 192 	213 	211
f 204 	292 	13
f 211 	13 	192
f 222 	220 	13
f 211 	222 	13
f 296 	297 	306
f 297 	298 	306
f 306 	295 	296
f 298 	299 	306
f 299 	215 	306
f 217 	210 	191
f 191 	306 	217
f 215 	217 	306
f 210 	212 	191
f 191 	212 	190
f 255 	253 	285
f 290 	294 	293
f 295 	294 	291
f 205 	295 	291
f 289 	290 	293
f 293 	285 	289
f 291 	294 	290
f 296 	295 	205
f 292 	298 	297
f 204 	299 	298
f 298 	292 	204
f 220 	215 	299
f 206 	297 	296
f 296 	205 	206
f 292 	297 	206
f 306 	293 	294
f 294 	295 	306
f 232 	253 	255
f 255 	228 	232
f 285 	293 	255
f 240 	250 	306
f 306 	251 	240
f 240 	251 	252
f 293 	306 	255
f 250 	228 	255
f 248 	234 	228
f 228 	250 	248
f 255 	306 	250
f 65 	273 	126
f 124 	125 	65
# 142 faces

 #end of obj_0

