# Object Export From Tinkercad Server 2015

mtllib obj.mtl

o obj_0
v -32.4058 		71.173 		5.5
v -31.8548 		71.382 		5.5
v -31.2868 		71.536 		5.5
v -30.7058 		71.634 		5.5
v -30.1188 		71.675 		5.5
v -29.5298 		71.657 		5.5
v -28.9458 		71.582 		5.5
v -30.7488 		63.025 		5.5
v -31.0048 		63.111 		5.5
v -31.2518 		63.222 		5.5
v -31.4858 		63.356 		5.5
v -31.7058 		63.513 		5.5
v -31.9098 		63.69 		5.5
v -32.0958 		63.887 		5.5
v -32.2608 		64.101 		5.5
v -32.4038 		64.33 		5.5
v 19.2162 		68.591 		9.519
v 18.3292 		69.01 		9.519
v 17.4052 		69.341 		9.519
v 24.0722 		62.674 		9.519
v 23.7412 		63.598 		9.519
v 23.3212 		64.486 		9.519
v 22.8172 		65.327 		9.519
v 22.2322 		66.115 		9.519
v 21.5732 		66.843 		9.519
v -32.5248 		64.572 		5.5
v 20.8462 		67.502 		9.519
v 32.8661 		35.107 		4
v 21.3612 		35.107 		4
v -32.6208 		64.825 		5.5
v 26.7742 		34.151 		4
v -32.6908 		65.086 		5.5
v -32.7358 		65.352 		5.5
v -32.7548 		65.622 		5.5
v 16.9621 		35.107 		4
v -32.7468 		65.892 		5.5
v -32.7128 		66.16 		5.5
v -32.6518 		66.423 		5.5
v 19.4452 		41.752 		3.997
v 19.4452 		41.752 		0
v 19.8152 		41.619 		3.997
v 19.8152 		41.619 		0
v -29.9468 		62.922 		5.5
v -30.2168 		62.93 		5.5
v -30.4848 		62.964 		5.5
v 20.1962 		41.524 		3.997
v 20.1962 		41.524 		0
v -32.5658 		66.68 		5.5
v -32.4548 		66.926 		5.5
v -32.3208 		67.161 		5.5
v -32.1638 		67.381 		5.5
v 16.9942 		45.841 		3.997
v -31.9868 		67.585 		5.5
v 16.9942 		45.841 		0
v -31.7898 		67.77 		5.5
v -31.5758 		67.935 		5.5
v 16.9752 		45.449 		3.997
v 16.9752 		45.449 		0
v -31.3468 		68.079 		5.5
v -31.1048 		68.199 		5.5
v -30.8518 		68.295 		5.5
v 16.9942 		45.057 		3.997
v 16.9942 		45.057 		0
v -30.5908 		68.366 		5.5
v -30.3248 		68.411 		5.5
v 17.0522 		44.668 		3.997
v 17.0522 		44.668 		0
v -30.0548 		68.429 		5.5
v -29.7848 		68.421 		5.5
v -29.5168 		68.387 		5.5
v 17.1472 		44.287 		3.997
v 17.1472 		44.287 		0
v -29.2538 		68.327 		5.5
v -28.9968 		68.241 		5.5
v 17.2802 		43.918 		3.997
v 17.2802 		43.918 		0
v 17.4472 		43.563 		3.997
v 17.4472 		43.563 		0
v 9.7882 		68.591 		0
v 8.9472 		68.086 		0
v 8.9472 		68.086 		9.519
v 9.7882 		68.591 		9.519
v 8.1582 		67.502 		0
v 8.1582 		67.502 		9.519
v 7.4312 		66.843 		0
v 7.4312 		66.843 		9.519
v -33.4318 		70.598 		5.5
v -32.9328 		70.911 		5.5
v 6.7722 		66.115 		0
v 6.7722 		66.115 		9.519
v 4.7652 		63.478 		5.5
v -25.0422 		62.3082 		9.5
v -25.0422 		62.3081 		5.5
v 4.6172 		63.422 		5.5
v -28.8968 		63.152 		5.5
v -28.8968 		63.152 		9.5
v -35.2358 		62.744 		5.5
v -35.4978 		63.271 		5.5
v -35.7078 		63.822 		5.5
v -35.8618 		64.39 		5.5
v -29.1498 		63.056 		5.5
v -35.9598 		64.971 		5.5
v -29.1498 		63.056 		9.5
v -35.9998 		65.558 		5.5
v -35.9828 		66.147 		5.5
v -35.9078 		66.731 		5.5
v -35.7758 		67.304 		5.5
v -35.5888 		67.863 		5.5
v -35.3468 		68.4 		5.5
v -35.0548 		68.911 		5.5
v 17.6492 		43.226 		3.997
v 17.6492 		43.226 		0
v -34.7128 		69.39 		5.5
v -34.3258 		69.834 		5.5
v -33.8978 		70.238 		5.5
v 17.8832 		42.91 		3.997
v 17.8832 		42.91 		0
v -30.4718 		59.694 		5.5
v -31.0558 		59.769 		5.5
v -31.6298 		59.901 		5.5
v -32.1878 		60.088 		5.5
v -32.7248 		60.33 		5.5
v 18.1472 		42.619 		3.997
v 18.1472 		42.619 		0
v -33.2358 		60.622 		5.5
v -33.7158 		60.964 		5.5
v -34.1598 		61.351 		5.5
v -34.5638 		61.779 		5.5
v -34.9238 		62.245 		5.5
v 18.4382 		42.355 		3.997
v 18.4382 		42.355 		0
v -30.1188 		71.675 		9.5
v -30.7058 		71.634 		9.5
v -31.2868 		71.536 		9.5
v -31.8548 		71.382 		9.5
v -32.4058 		71.173 		9.5
v -28.9458 		71.582 		9.5
v -29.5298 		71.657 		9.5
v -27.2558 		65.46 		9.5
v -27.2558 		65.46 		5.5
v -30.7488 		63.025 		9.5
v -27.2898 		65.192 		5.5
v -27.2898 		65.192 		9.5
v -31.0048 		63.111 		9.5
v -27.3498 		64.928 		5.5
v -27.3498 		64.928 		9.5
v -31.2518 		63.222 		9.5
v -27.4358 		64.672 		5.5
v -27.4358 		64.672 		9.5
v -31.4858 		63.356 		9.5
v -27.5468 		64.425 		5.5
v -27.5468 		64.425 		9.5
v -31.7058 		63.513 		9.5
v -27.6818 		64.191 		5.5
v -27.6818 		64.191 		9.5
v -31.9098 		63.69 		9.5
v -32.0958 		63.887 		9.5
v -27.8378 		63.971 		5.5
v -27.8378 		63.971 		9.5
v -32.2608 		64.101 		9.5
v -28.0158 		63.767 		5.5
v -28.0158 		63.767 		9.5
v -32.4038 		64.33 		9.5
v -28.2128 		63.581 		5.5
v -28.2128 		63.581 		9.5
v -28.4258 		63.416 		5.5
v -28.4258 		63.416 		9.5
v -32.5248 		64.572 		9.5
v -28.6548 		63.273 		5.5
v -28.6548 		63.273 		9.5
v -32.6208 		64.825 		9.5
v 20.0582 		68.086 		9.519
v -32.6908 		65.086 		9.5
v -27.3108 		66.266 		5.5
v -27.3108 		66.266 		9.5
v 17.5332 		54.35 		9.519
v -32.7358 		65.352 		9.5
v -27.2658 		65.999 		5.5
v -27.2658 		65.999 		9.5
v -32.7548 		65.622 		9.5
v 18.4572 		54.681 		9.519
v -32.7468 		65.892 		9.5
v -27.2478 		65.73 		5.5
v -27.2478 		65.73 		9.5
v -32.7128 		66.16 		9.5
v 19.4092 		54.919 		9.519
v -32.6518 		66.423 		9.5
v 20.3802 		55.063 		9.519
v -28.0918 		67.661 		5.5
v -28.0918 		67.661 		9.5
v 21.3612 		55.112 		9.519
v -27.9068 		67.464 		5.5
v -27.9068 		67.464 		9.5
v -29.9468 		62.922 		9.5
v -27.7418 		67.251 		5.5
v -27.7418 		67.251 		9.5
v 22.3412 		55.063 		9.519
v -30.2168 		62.93 		9.5
v -27.5978 		67.022 		5.5
v -27.5978 		67.022 		9.5
v -30.4848 		62.964 		9.5
v -27.4778 		66.78 		5.5
v -27.4778 		66.78 		9.5
v -28.9968 		68.241 		9.5
v 11.5992 		50.202 		4
v -27.3818 		66.527 		5.5
v -27.3818 		66.527 		9.5
v 11.5992 		50.202 		9.519
v -32.5658 		66.68 		9.5
v 12.6173 		49.9542 		4
v 12.5512 		49.964 		4
v -32.4548 		66.926 		9.5
v 4.5022 		59.772 		9.5
v -32.3208 		67.161 		9.5
v 4.5022 		59.772 		5.5
v -32.1638 		67.381 		9.5
v 4.4692 		63.368 		5.5
v -31.9868 		67.585 		9.5
v 12.6173 		49.9542 		9.519
v 23.244 		54.9291 		9.519
v -31.7898 		67.77 		9.5
v 18.7532 		42.122 		3.997
v 18.7532 		42.122 		0
v -31.5758 		67.935 		9.5
v -31.3468 		68.079 		9.5
v 23.3212 		55.058 		9.519
v -31.1048 		68.199 		9.5
v 19.0902 		41.92 		3.997
v 19.0902 		41.92 		0
v -30.8518 		68.295 		9.5
v 24.5022 		59.772 		9.519
v 24.4542 		60.752 		9.519
v 24.3102 		61.722 		9.519
v 23.7412 		55.945 		9.519
v 24.0722 		56.869 		9.519
v -30.5908 		68.366 		9.5
v 24.3102 		57.821 		9.519
v 24.4542 		58.791 		9.519
v -30.3248 		68.411 		9.5
v -30.0548 		68.429 		9.5
v -29.7848 		68.421 		9.5
v 20.5852 		41.466 		3.997
v 20.5852 		41.466 		0
v -29.5168 		68.387 		9.5
v 24.0722 		62.674 		0
v -29.2538 		68.327 		9.5
v 23.7412 		63.598 		0
v 20.9772 		41.447 		0
v 20.9772 		41.447 		3.997
v 21.3692 		41.466 		3.997
v 21.3692 		41.466 		0
v 23.3212 		64.486 		0
v 22.8172 		65.327 		0
v 21.7582 		41.524 		3.997
v 21.7582 		41.524 		0
v 4.4692 		63.368 		9.5
v 4.3232 		63.317 		5.5
v 22.2322 		66.115 		0
v 4.3232 		63.317 		9.5
v 4.1772 		63.269 		5.5
v 4.1772 		63.269 		9.5
v 21.5732 		66.843 		0
v 22.1392 		41.619 		3.997
v 4.7652 		63.478 		9.5
v 22.1392 		41.619 		0
v 2.9032 		62.925 		5.5
v 12.5512 		49.964 		9.519
v 2.7652 		62.896 		5.5
v 2.7652 		62.896 		9.5
v 2.9032 		62.925 		9.5
v 4.6172 		63.422 		9.5
v -32.9328 		70.911 		9.5
v -33.4318 		70.598 		9.5
v 2.4902 		62.843 		9.5
v 2.4902 		62.843 		5.5
v 2.3542 		62.818 		5.5
v 2.3542 		62.818 		9.5
v 22.5082 		41.752 		3.997
v 22.5082 		41.752 		0
v 2.6272 		62.868 		5.5
v 2.6272 		62.868 		9.5
v 4.0332 		63.223 		5.5
v 22.8632 		41.92 		3.997
v 3.8892 		63.179 		5.5
v 22.8632 		41.92 		0
v 3.8892 		63.179 		9.5
v -33.8978 		70.238 		9.5
v 4.0332 		63.223 		9.5
v -34.3258 		69.834 		9.5
v -34.7128 		69.39 		9.5
v -35.0548 		68.911 		9.5
v -35.3468 		68.4 		9.5
v -35.5888 		67.863 		9.5
v -35.7758 		67.304 		9.5
v -35.9078 		66.731 		9.5
v -35.9828 		66.147 		9.5
v -35.9998 		65.558 		9.5
v -35.9598 		64.971 		9.5
v -35.8618 		64.39 		9.5
v 3.7462 		63.137 		5.5
v -35.7078 		63.822 		9.5
v 3.7462 		63.137 		9.5
v -35.4978 		63.271 		9.5
v -35.2358 		62.744 		9.5
v 3.0422 		62.956 		5.5
v 3.0422 		62.956 		9.5
v 23.2002 		42.122 		3.997
v 23.2002 		42.122 		0
v -32.7248 		60.33 		9.5
v -32.1878 		60.088 		9.5
v -31.6298 		59.901 		9.5
v -31.0558 		59.769 		9.5
v -30.4718 		59.694 		9.5
v 3.6042 		63.097 		5.5
v 3.6042 		63.097 		9.5
v 23.5162 		42.355 		3.997
v 23.5162 		42.355 		0
v -34.5638 		61.779 		9.5
v -34.1598 		61.351 		9.5
v -33.7158 		60.964 		9.5
v -33.2358 		60.622 		9.5
v 3.1812 		62.988 		5.5
v -34.9238 		62.245 		9.5
v 6.1882 		65.327 		0
v 3.1812 		62.988 		9.5
v 2.2182 		62.795 		5.5
v 2.0832 		62.774 		5.5
v 2.0832 		62.774 		9.5
v 2.2182 		62.795 		9.5
v 6.1882 		65.327 		9.519
v 23.8072 		42.619 		3.997
v 23.8072 		42.619 		0
v 3.3212 		63.023 		9.5
v 4.9142 		63.536 		5.5
v 3.3212 		63.023 		5.5
v 5.0652 		63.598 		5.5
v 24.0702 		42.91 		3.997
v 24.0702 		42.91 		0
v 3.4622 		63.058 		5.5
v 3.4622 		63.058 		9.5
v 24.3042 		43.226 		3.997
v 24.3042 		43.226 		0
v 1.657 		62.7152 		9.5
v 1.657 		62.7152 		5.5
v 24.5062 		43.563 		3.997
v 24.5062 		43.563 		0
v 1.8142 		62.735 		5.5
v 1.6802 		62.718 		5.5
v 1.6802 		62.718 		9.5
v 1.8142 		62.735 		9.5
v 1.9482 		62.754 		5.5
v 1.9482 		62.754 		9.5
v 24.6742 		43.918 		3.997
v 24.6742 		43.918 		0
v 5.0652 		63.598 		9.5
v 4.9142 		63.536 		9.5
v 24.8062 		44.287 		3.997
v 24.8062 		44.287 		0
v 24.9022 		44.668 		3.997
v 24.9022 		44.668 		0
v 24.9592 		45.057 		3.997
v 24.9592 		45.057 		0
v 24.9792 		45.449 		0
v 24.9792 		45.449 		3.997
v 24.9592 		45.841 		3.997
v 24.9592 		45.841 		0
v 19.4452 		49.146 		0
v 19.4452 		49.146 		3.997
v 19.0902 		48.978 		3.997
v 19.0902 		48.978 		0
v 5.6832 		64.486 		0
v 18.7532 		48.776 		3.997
v 18.7532 		48.776 		0
v 5.6832 		64.486 		9.519
v 18.4382 		48.543 		3.997
v 20.8462 		67.502 		0
v 18.4382 		48.543 		0
v 20.0582 		68.086 		0
v 19.2162 		68.591 		0
v 18.1472 		48.279 		3.997
v 18.1472 		48.279 		0
v 18.3292 		69.01 		0
v 17.4052 		69.341 		0
v 17.8832 		47.988 		3.997
v 17.8832 		47.988 		0
v 24.2333 		54.6887 		4
v 24.2333 		54.6887 		3.997
v 17.6492 		47.672 		3.997
v 17.6492 		47.672 		0
v 17.4472 		47.335 		3.997
v 17.4472 		47.335 		0
v 17.2802 		46.98 		3.997
v 17.2802 		46.98 		0
v 17.1472 		46.611 		3.997
v 17.1472 		46.611 		0
v 23.244 		54.9291 		4
v 23.3122 		54.919 		4
v 17.0522 		46.23 		3.997
v 17.0522 		46.23 		0
v 23.3212 		55.058 		4
v 23.3122 		54.919 		3.997
v -26.7658 		70.729 		9.5
v -27.2768 		71.022 		9.5
v -27.8138 		71.263 		9.5
v -28.3728 		71.45 		9.5
v 20.1962 		49.374 		3.997
v -24.1842 		67.122 		9.5
v -24.2948 		67.53 		9.5
v 20.1962 		49.374 		0
v -24.5038 		68.08 		9.5
v -28.7508 		68.13 		9.5
v 19.8152 		49.279 		3.997
v 19.8152 		49.279 		0
v -28.5158 		67.995 		9.5
v -28.2958 		67.839 		9.5
v 23.7092 		55.8775 		0
v 23.7092 		55.8775 		4
v 24.5062 		47.335 		3.997
v 24.5062 		47.335 		0
v 24.3042 		47.672 		3.997
v 24.3042 		47.672 		0
v 23.7412 		55.945 		0
v 24.0722 		56.869 		0
v 24.0702 		47.988 		3.997
v 24.0702 		47.988 		0
v 24.3102 		57.821 		0
v 23.8072 		48.279 		3.997
v 23.8072 		48.279 		0
v 24.4542 		58.791 		0
v -24.7658 		68.607 		9.5
v -25.0788 		69.106 		9.5
v -25.4388 		69.572 		9.5
v -25.8428 		70.001 		9.5
v -26.2868 		70.388 		9.5
v -29.4108 		62.986 		9.5
v 23.5162 		48.543 		3.997
v 23.5162 		48.543 		0
v -29.6778 		62.941 		9.5
v 24.5022 		59.772 		0
v 24.4542 		60.752 		0
v 23.2002 		48.776 		3.997
v 23.2002 		48.776 		0
v 24.3102 		61.722 		0
v 22.8632 		48.978 		3.997
v 22.8632 		48.978 		0
v -29.8828 		59.677 		9.5
v -29.2958 		59.717 		9.5
v -28.7148 		59.815 		9.5
v -28.1468 		59.969 		9.5
v -27.5968 		60.179 		9.5
v -27.0698 		60.441 		9.5
v -26.5708 		60.753 		9.5
v -26.1048 		61.113 		9.5
v -25.6758 		61.517 		9.5
v -25.2888 		61.961 		9.5
v 22.5082 		49.146 		3.997
v 22.5082 		49.146 		0
v 17.5332 		54.35 		3.997
v 18.4572 		54.681 		3.997
v 22.1392 		49.279 		3.997
v 22.1392 		49.279 		0
v 19.4092 		54.919 		3.997
v 20.3802 		55.063 		3.997
v 21.7582 		49.374 		3.997
v 21.7582 		49.374 		0
v 21.3612 		55.112 		3.997
v 21.3692 		49.432 		3.997
v 22.3412 		55.063 		3.997
v 21.3692 		49.432 		0
v 4.8022 		62.689 		4
v 4.8022 		62.689 		0
v 20.9772 		49.451 		3.997
v 20.9772 		49.451 		0
v 5.2172 		63.663 		5.5
v 5.3141 		63.7057 		5.5
v 20.5852 		49.432 		3.997
v 20.5852 		49.432 		0
v 24.9022 		46.23 		3.997
v 24.9022 		46.23 		0
v 16.368 		36.4545 		4
v 16.368 		36.4545 		3.997
v 24.8062 		46.611 		3.997
v 24.8062 		46.611 		0
v 11.6023 		47.2645 		3.997
v 11.6023 		47.2645 		4
v 24.6742 		46.98 		3.997
v 24.6742 		46.98 		0
v 5.2632 		63.598 		5.5
v 5.3141 		63.7057 		9.5
v 5.2172 		63.663 		9.5
v 16.6462 		36.288 		4
v 11.7892 		48.013 		4
v 12.1202 		48.937 		4
v 21.3612 		35.107 		3.997
v 20.3802 		35.155 		3.997
v 20.3802 		35.155 		4
v 19.4092 		35.299 		3.997
v 19.4092 		35.299 		4
v 5.2632 		63.598 		9.5
v 18.4572 		35.537 		3.997
v 18.4572 		35.537 		4
v 17.5332 		35.868 		3.997
v 17.5332 		35.868 		4
v 24.2642 		35.537 		3.997
v 24.2642 		35.537 		4
v 16.6462 		36.288 		3.997
v 23.3122 		35.299 		3.997
v 23.3122 		35.299 		4
v 22.3412 		35.155 		3.997
v 11.7892 		48.013 		3.997
v 22.3412 		35.155 		4
v 5.2632 		63.598 		0
v 12.1202 		48.937 		3.997
v 30.1822 		40.394 		3.997
v 30.1822 		40.394 		4
v 30.365 		40.7802 		4
v 30.365 		40.7802 		3.997
v 29.6782 		39.552 		3.997
v 5.2632 		63.598 		9.519
v 29.6782 		39.552 		4
v 29.0932 		38.764 		3.997
v 29.0932 		38.764 		4
v 28.4342 		38.036 		3.997
v 28.4342 		38.036 		4
v 27.7062 		37.377 		3.997
v 27.7062 		37.377 		4
v 26.9182 		36.792 		3.997
v 26.9182 		36.792 		4
v 16.4532 		69.579 		0
v 26.0762 		36.288 		3.997
v 4.9332 		62.674 		4
v 26.0762 		36.288 		4
v 4.9605 		62.7506 		4
v 25.1892 		35.868 		3.997
v 25.1892 		35.868 		4
v 4.9605 		62.7506 		0
v -28.3728 		71.45 		5.5
v -27.8138 		71.263 		5.5
v 4.888 		62.4942 		0
v -27.2768 		71.022 		5.5
v -26.7658 		70.729 		5.5
v 4.9332 		62.674 		5.5
v -24.5038 		68.08 		5.5
v -24.2948 		67.53 		5.5
v -24.1842 		67.122 		5.5
v 4.9332 		62.674 		9.5
v -28.7508 		68.13 		5.5
v -28.5158 		67.995 		5.5
v 10.6752 		69.01 		0
v 11.5992 		69.341 		0
v 12.5512 		69.579 		0
v 13.5222 		69.723 		0
v 14.5022 		69.772 		0
v 15.4822 		69.723 		0
v -28.2958 		67.839 		5.5
v 4.9332 		62.674 		9.519
v 4.888 		62.4942 		4
v 13.0442 		50.666 		3.997
v 13.0442 		50.666 		9.519
v 13.6292 		51.455 		3.997
v 13.6292 		51.455 		9.519
v 14.2882 		52.182 		3.997
v 14.2882 		52.182 		9.519
v 6.1882 		54.216 		0
v 5.6832 		55.058 		0
v 5.2632 		55.945 		0
v 4.9332 		56.869 		0
v 4.6942 		57.821 		0
v 4.5502 		58.791 		0
v 15.0152 		52.841 		3.997
v 4.5022 		59.772 		0
v 15.0152 		52.841 		9.519
v 4.5502 		60.752 		0
v 4.6942 		61.722 		0
v 15.8042 		53.426 		3.997
v 15.8042 		53.426 		9.519
v 10.0261 		50.8396 		0
v 9.7882 		50.952 		0
v 8.9472 		51.457 		0
v 8.1582 		52.041 		0
v 7.4312 		52.7 		0
v 6.7722 		53.428 		0
v 16.4532 		69.579 		9.519
v 14.5022 		69.772 		9.519
v 13.5222 		69.723 		9.519
v 12.5512 		69.579 		9.519
v 11.5992 		69.341 		9.519
v 10.6752 		69.01 		9.519
v 15.4822 		69.723 		9.519
v 16.6462 		53.93 		9.519
v 4.5022 		59.772 		9.519
v 4.5502 		58.791 		9.519
v 4.6942 		57.821 		9.519
v 4.9332 		56.869 		9.519
v 5.2632 		55.945 		9.519
v 5.6832 		55.058 		9.519
v 6.1882 		54.216 		9.519
v 4.6942 		61.722 		9.519
v 4.5502 		60.752 		9.519
v -26.2868 		70.388 		5.5
v -25.8428 		70.001 		5.5
v -25.4388 		69.572 		5.5
v -25.0788 		69.106 		5.5
v -24.7658 		68.607 		5.5
v 35.5942 		28.865 		9.52
v 35.0892 		29.707 		9.52
v 34.5052 		30.495 		9.52
v 33.8462 		31.222 		9.52
v 33.1182 		31.881 		9.52
v 36.0125 		27.9794 		9.52
v -29.4108 		62.986 		5.5
v -29.6778 		62.941 		5.5
v 26.7742 		34.151 		9.52
v 25.7942 		34.103 		9.52
v 24.8242 		33.959 		9.52
v 32.3302 		32.466 		9.52
v 31.4882 		32.97 		9.52
v 30.6012 		33.39 		9.52
v 29.6772 		33.721 		9.52
v 28.7252 		33.959 		9.52
v 6.7722 		53.428 		9.519
v 27.7552 		34.103 		9.52
v 7.4312 		52.7 		9.519
v 8.1582 		52.041 		9.519
v 8.9472 		51.457 		9.519
v 9.7882 		50.952 		9.519
v 10.6752 		50.533 		9.519
v 23.8722 		33.721 		9.52
v 22.9482 		33.39 		9.52
v 22.0612 		32.97 		9.52
v 21.2192 		32.466 		9.52
v 20.4312 		31.881 		9.52
v 19.7032 		31.222 		9.52
v 19.0442 		30.495 		9.52
v -25.2888 		61.961 		5.5
v -25.6758 		61.517 		5.5
v 18.4602 		29.707 		9.52
v -26.1048 		61.113 		5.5
v -26.5708 		60.753 		5.5
v -27.0698 		60.441 		5.5
v -27.5968 		60.179 		5.5
v -28.1468 		59.969 		5.5
v -28.7148 		59.815 		5.5
v -29.2958 		59.717 		5.5
v -29.8828 		59.677 		5.5
v 17.9552 		28.865 		9.52
v 17.5362 		27.978 		9.52
v 17.2052 		27.054 		9.52
v 16.9672 		26.102 		9.52
v 16.8232 		25.131 		9.52
v 16.7742 		24.151 		9.52
v 16.8232 		23.171 		9.52
v 16.9672 		22.2 		9.52
v 17.2052 		21.248 		9.52
v 17.5357 		20.3254 		9.52
v 35.9515 		28.1085 		4
v 35.9515 		28.1085 		0
v 35.5942 		28.865 		4
v 36.0125 		27.9794 		0
v 35.0892 		29.707 		4
v 34.5052 		30.495 		4
v 33.8462 		31.222 		4
v 33.1182 		31.881 		4
v 32.3302 		32.466 		4
v 31.4882 		32.97 		4
v 16.6462 		53.93 		3.997
v 30.6012 		33.39 		4
v 29.6772 		33.721 		4
v 4.6942 		61.722 		5.5
v 28.7252 		33.959 		4
v 4.6942 		61.722 		9.5
v 27.7552 		34.103 		4
v 25.7942 		34.103 		4
v 4.5502 		60.752 		5.5
v 4.5502 		60.752 		9.5
v 24.8242 		33.959 		4
v 23.8722 		33.721 		4
v 22.9482 		33.39 		4
v 22.0612 		32.97 		4
v 4.5502 		58.791 		9.5
v 21.2192 		32.466 		4
v 4.5502 		58.791 		5.5
v 20.4312 		31.881 		4
v 4.6942 		57.821 		9.5
v 4.6942 		57.821 		5.5
v 19.7032 		31.222 		4
v 19.0442 		30.495 		4
v 4.8473 		57.2109 		9.5
v 4.8473 		57.2109 		5.5
v 19.0135 		30.4537 		0
v 19.0135 		30.4537 		4
v 18.4602 		29.707 		0
v 17.9552 		28.865 		0
v 17.5362 		27.978 		0
v 17.2052 		27.054 		0
v 16.9672 		26.102 		0
v 16.8232 		25.131 		0
v 16.7742 		24.151 		0
v 16.8232 		23.171 		0
v 16.9672 		22.2 		0
v 17.2052 		21.248 		0
v 17.5357 		20.3254 		0
v 10.0261 		50.8396 		4
v 10.6752 		50.533 		4
v 12.5392 		49.824 		4
v 12.5392 		49.824 		3.997
# 706 vertices

g group_0_4634441

usemtl color_4634441
s 0

f 70 	69 	6
f 6 	7 	70
f 7 	537 	73
f 74 	73 	537
f 9 	8 	121
f 121 	122 	9
f 10 	9 	122
f 126 	127 	13
f 127 	128 	14
f 16 	15 	97
f 29 	496 	681
f 31 	532 	673
f 31 	672 	528
f 672 	670 	526
f 28 	667 	665
f 98 	99 	26
f 32 	100 	33
f 33 	102 	34
f 34 	105 	36
f 36 	105 	37
f 39 	40 	229
f 105 	106 	37
f 39 	41 	42
f 39 	42 	40
f 41 	46 	47
f 41 	47 	42
f 44 	118 	45
f 37 	107 	38
f 502 	500 	41
f 41 	39 	502
f 38 	107 	48
f 48 	109 	49
f 50 	113 	51
f 54 	52 	57
f 54 	57 	58
f 51 	113 	53
f 55 	87 	56
f 53 	115 	55
f 88 	1 	59
f 56 	87 	59
f 57 	62 	63
f 57 	63 	58
f 60 	59 	1
f 61 	60 	2
f 62 	66 	67
f 62 	67 	63
f 64 	61 	2
f 65 	64 	3
f 66 	71 	72
f 66 	72 	67
f 62 	484 	66
f 68 	65 	5
f 71 	75 	76
f 71 	76 	72
f 66 	484 	71
f 75 	77 	78
f 75 	78 	76
f 3 	4 	65
f 2 	3 	64
f 1 	2 	60
f 4 	5 	65
f 69 	68 	6
f 71 	484 	75
f 122 	125 	11
f 11 	10 	122
f 12 	11 	126
f 8 	45 	120
f 118 	119 	45
f 43 	118 	44
f 79 	80 	81
f 79 	81 	82
f 80 	83 	84
f 80 	84 	81
f 115 	53 	114
f 88 	59 	87
f 87 	55 	115
f 49 	109 	50
f 125 	126 	11
f 83 	85 	86
f 83 	86 	84
f 85 	89 	90
f 85 	90 	86
f 96 	95 	101
f 96 	101 	103
f 77 	111 	112
f 77 	112 	78
f 100 	30 	99
f 102 	33 	100
f 104 	34 	102
f 30 	26 	99
f 105 	34 	104
f 107 	37 	106
f 108 	48 	107
f 109 	48 	108
f 110 	50 	109
f 113 	50 	110
f 114 	53 	113
f 111 	116 	117
f 111 	117 	112
f 75 	484 	77
f 13 	12 	126
f 14 	13 	127
f 128 	129 	14
f 120 	121 	8
f 119 	120 	45
f 116 	123 	124
f 116 	124 	117
f 129 	97 	15
f 26 	16 	97
f 97 	98 	26
f 30 	100 	32
f 15 	14 	129
f 111 	77 	481
f 123 	130 	131
f 123 	131 	124
f 272 	225 	136
f 136 	227 	135
f 134 	135 	236
f 139 	140 	142
f 139 	142 	143
f 156 	157 	319
f 143 	142 	145
f 143 	145 	146
f 318 	319 	157
f 146 	145 	148
f 146 	148 	149
f 149 	148 	151
f 149 	151 	152
f 152 	151 	154
f 152 	154 	155
f 323 	318 	157
f 155 	154 	158
f 155 	158 	159
f 304 	323 	160
f 159 	158 	161
f 159 	161 	162
f 163 	168 	304
f 162 	161 	164
f 162 	164 	165
f 303 	304 	168
f 165 	164 	166
f 165 	166 	167
f 167 	166 	169
f 167 	169 	170
f 171 	301 	168
f 301 	303 	168
f 95 	96 	169
f 170 	169 	96
f 19 	591 	18
f 20 	21 	591
f 22 	23 	591
f 23 	24 	591
f 21 	22 	591
f 24 	25 	591
f 18 	591 	17
f 27 	591 	25
f 172 	591 	27
f 17 	591 	172
f 173 	299 	171
f 177 	299 	173
f 175 	174 	178
f 175 	178 	179
f 296 	297 	180
f 179 	178 	183
f 179 	183 	184
f 295 	296 	185
f 184 	183 	140
f 184 	140 	139
f 187 	294 	185
f 191 	237 	188
f 188 	232 	186
f 190 	189 	192
f 190 	192 	193
f 195 	196 	193
f 195 	193 	192
f 199 	200 	196
f 199 	196 	195
f 153 	156 	320
f 202 	203 	200
f 202 	200 	199
f 206 	207 	203
f 206 	203 	202
f 319 	320 	156
f 207 	206 	175
f 174 	175 	206
f 209 	294 	187
f 689 	688 	93
f 481 	116 	111
f 130 	222 	223
f 130 	223 	131
f 116 	481 	123
f 221 	224 	273
f 222 	228 	229
f 222 	229 	223
f 230 	135 	227
f 272 	273 	225
f 130 	481 	222
f 123 	481 	130
f 228 	39 	229
f 233 	186 	232
f 231 	232 	188
f 197 	235 	191
f 220 	226 	197
f 234 	197 	226
f 234 	235 	197
f 235 	237 	191
f 238 	188 	237
f 231 	188 	238
f 239 	240 	132
f 236 	135 	230
f 228 	481 	39
f 222 	481 	228
f 138 	132 	240
f 243 	47 	242
f 46 	242 	47
f 403 	404 	204
f 248 	243 	242
f 248 	242 	249
f 91 	542 	94
f 46 	41 	500
f 236 	239 	134
f 133 	134 	239
f 132 	133 	239
f 138 	240 	241
f 138 	241 	244
f 405 	137 	246
f 249 	250 	251
f 249 	251 	248
f 245 	247 	21
f 245 	21 	20
f 247 	252 	22
f 247 	22 	21
f 252 	253 	23
f 252 	23 	22
f 256 	94 	217
f 310 	311 	141
f 157 	160 	323
f 160 	163 	304
f 201 	141 	311
f 250 	254 	255
f 250 	255 	251
f 256 	217 	257
f 256 	257 	259
f 253 	258 	24
f 253 	24 	23
f 259 	257 	260
f 259 	260 	261
f 258 	262 	25
f 258 	25 	24
f 182 	185 	296
f 216 	218 	290
f 289 	290 	218
f 287 	289 	218
f 218 	221 	287
f 273 	287 	221
f 224 	225 	273
f 227 	136 	225
f 180 	182 	296
f 211 	210 	219
f 211 	219 	267
f 266 	268 	269
f 266 	269 	270
f 254 	263 	265
f 254 	265 	255
f 274 	275 	276
f 274 	276 	277
f 263 	278 	279
f 263 	279 	265
f 281 	269 	280
f 268 	280 	269
f 256 	546 	271
f 281 	280 	275
f 281 	275 	274
f 278 	283 	285
f 278 	285 	279
f 282 	284 	286
f 282 	286 	288
f 286 	284 	300
f 286 	300 	302
f 290 	291 	214
f 214 	216 	290
f 291 	292 	214
f 212 	214 	292
f 209 	212 	292
f 293 	209 	292
f 294 	209 	293
f 295 	185 	294
f 297 	298 	180
f 177 	180 	298
f 299 	177 	298
f 301 	171 	299
f 321 	309 	150
f 147 	150 	309
f 305 	266 	270
f 305 	270 	306
f 283 	307 	308
f 283 	308 	285
f 288 	261 	282
f 260 	282 	261
f 264 	91 	94
f 264 	94 	271
f 150 	153 	320
f 446 	447 	194
f 302 	300 	314
f 302 	314 	315
f 271 	94 	256
f 307 	316 	317
f 307 	317 	308
f 309 	310 	144
f 144 	147 	309
f 141 	144 	310
f 320 	321 	150
f 322 	305 	306
f 322 	306 	325
f 326 	327 	328
f 326 	328 	329
f 316 	331 	332
f 316 	332 	317
f 7 	6 	138
f 7 	138 	137
f 330 	90 	324
f 89 	324 	90
f 6 	5 	132
f 6 	132 	138
f 333 	335 	322
f 333 	322 	325
f 5 	4 	133
f 5 	133 	132
f 331 	337 	338
f 331 	338 	332
f 340 	315 	339
f 314 	339 	315
f 4 	3 	134
f 4 	134 	133
f 340 	339 	335
f 340 	335 	333
f 3 	2 	135
f 3 	135 	134
f 337 	341 	342
f 337 	342 	338
f 277 	276 	326
f 277 	326 	329
f 2 	1 	136
f 2 	136 	135
f 530 	527 	307
f 283 	278 	534
f 1 	88 	272
f 1 	272 	136
f 341 	345 	346
f 341 	346 	342
f 336 	542 	334
f 337 	331 	521
f 331 	316 	525
f 347 	348 	349
f 347 	349 	350
f 9 	144 	8
f 349 	348 	344
f 349 	344 	343
f 10 	144 	9
f 352 	328 	351
f 327 	351 	328
f 91 	334 	542
f 341 	514 	345
f 352 	351 	347
f 352 	347 	350
f 354 	346 	353
f 345 	353 	346
f 345 	517 	353
f 13 	156 	12
f 353 	357 	358
f 353 	358 	354
f 264 	546 	356
f 156 	13 	14
f 15 	160 	14
f 357 	359 	360
f 357 	360 	358
f 16 	160 	15
f 357 	353 	517
f 356 	546 	355
f 359 	361 	362
f 359 	362 	360
f 271 	546 	264
f 363 	362 	361
f 363 	361 	364
f 499 	355 	546
f 74 	204 	246
f 74 	246 	73
f 30 	171 	26
f 361 	359 	517
f 171 	30 	32
f 364 	365 	366
f 364 	366 	363
f 204 	74 	411
f 33 	177 	32
f 88 	87 	273
f 88 	273 	272
f 365 	478 	366
f 336 	334 	356
f 336 	356 	355
f 34 	177 	33
f 87 	115 	273
f 364 	517 	365
f 36 	182 	34
f 91 	264 	334
f 356 	334 	264
f 115 	287 	273
f 367 	368 	369
f 367 	369 	370
f 115 	114 	289
f 115 	289 	287
f 182 	36 	37
f 355 	474 	336
f 114 	113 	290
f 114 	290 	289
f 370 	369 	372
f 370 	372 	373
f 113 	110 	291
f 113 	291 	290
f 110 	109 	292
f 110 	292 	291
f 109 	108 	293
f 109 	293 	292
f 373 	372 	375
f 373 	375 	377
f 262 	376 	27
f 262 	27 	25
f 108 	107 	294
f 108 	294 	293
f 376 	378 	172
f 376 	172 	27
f 141 	8 	144
f 107 	106 	295
f 107 	295 	294
f 378 	379 	17
f 378 	17 	172
f 377 	375 	380
f 377 	380 	381
f 10 	147 	144
f 379 	382 	18
f 379 	18 	17
f 106 	105 	296
f 106 	296 	295
f 382 	383 	19
f 382 	19 	18
f 105 	104 	297
f 105 	297 	296
f 147 	10 	11
f 147 	11 	150
f 381 	380 	384
f 381 	384 	385
f 297 	104 	102
f 297 	102 	298
f 12 	153 	11
f 150 	11 	153
f 102 	100 	299
f 102 	299 	298
f 153 	12 	156
f 100 	99 	301
f 100 	301 	299
f 385 	384 	388
f 385 	388 	389
f 14 	157 	156
f 99 	98 	303
f 99 	303 	301
f 98 	97 	304
f 98 	304 	303
f 160 	157 	14
f 389 	388 	390
f 389 	390 	391
f 16 	163 	160
f 125 	122 	309
f 391 	390 	392
f 391 	392 	393
f 122 	121 	310
f 122 	310 	309
f 387 	386 	401
f 397 	401 	386
f 163 	16 	168
f 16 	26 	168
f 121 	120 	311
f 121 	311 	310
f 120 	119 	312
f 120 	312 	311
f 119 	118 	313
f 119 	313 	312
f 393 	392 	394
f 393 	394 	395
f 386 	387 	417
f 171 	168 	26
f 560 	558 	388
f 323 	304 	129
f 97 	129 	304
f 32 	173 	171
f 395 	394 	398
f 395 	398 	399
f 129 	128 	318
f 129 	318 	323
f 128 	127 	319
f 128 	319 	318
f 396 	397 	400
f 386 	400 	397
f 177 	173 	32
f 126 	320 	319
f 126 	319 	127
f 125 	321 	320
f 125 	320 	126
f 399 	398 	52
f 399 	52 	54
f 177 	34 	180
f 309 	321 	125
f 182 	180 	34
f 510 	484 	398
f 510 	398 	394
f 401 	397 	396
f 246 	204 	405
f 244 	246 	137
f 138 	244 	137
f 37 	185 	182
f 200 	203 	410
f 38 	187 	185
f 38 	185 	37
f 409 	406 	412
f 409 	412 	413
f 402 	403 	411
f 43 	194 	612
f 220 	396 	400
f 406 	459 	412
f 476 	462 	406
f 44 	198 	194
f 44 	194 	43
f 415 	402 	414
f 220 	400 	226
f 412 	368 	367
f 412 	367 	413
f 45 	201 	198
f 45 	198 	44
f 417 	387 	416
f 201 	45 	141
f 8 	141 	45
f 400 	386 	417
f 392 	513 	394
f 390 	706 	392
f 380 	375 	562
f 375 	372 	570
f 570 	562 	375
f 575 	570 	372
f 369 	575 	372
f 368 	666 	369
f 459 	458 	412
f 414 	402 	411
f 400 	417 	226
f 187 	38 	209
f 48 	209 	38
f 418 	419 	487
f 416 	422 	417
f 49 	212 	209
f 49 	209 	48
f 226 	417 	234
f 50 	214 	212
f 50 	212 	49
f 234 	417 	422
f 418 	420 	421
f 418 	421 	419
f 51 	216 	214
f 51 	214 	50
f 234 	423 	235
f 53 	218 	216
f 53 	216 	51
f 422 	423 	234
f 420 	424 	425
f 420 	425 	421
f 55 	221 	218
f 55 	218 	53
f 423 	237 	235
f 418 	387 	420
f 56 	224 	221
f 56 	221 	55
f 423 	426 	237
f 404 	405 	204
f 424 	427 	428
f 424 	428 	425
f 237 	429 	238
f 59 	225 	224
f 59 	224 	56
f 426 	429 	237
f 424 	420 	387
f 60 	227 	225
f 60 	225 	59
f 410 	430 	200
f 196 	200 	431
f 431 	432 	196
f 193 	196 	432
f 433 	190 	432
f 434 	415 	433
f 402 	415 	434
f 231 	238 	439
f 429 	439 	238
f 428 	427 	436
f 428 	436 	437
f 61 	230 	227
f 61 	227 	60
f 312 	313 	201
f 232 	231 	440
f 439 	440 	231
f 198 	201 	313
f 311 	312 	201
f 64 	236 	230
f 64 	230 	61
f 437 	436 	441
f 437 	441 	442
f 313 	446 	194
f 194 	198 	313
f 65 	239 	236
f 65 	236 	64
f 233 	232 	443
f 440 	443 	232
f 427 	424 	387
f 68 	240 	239
f 68 	239 	65
f 442 	441 	444
f 442 	444 	445
f 69 	241 	240
f 69 	240 	68
f 443 	20 	233
f 103 	435 	448
f 449 	103 	448
f 450 	96 	449
f 451 	96 	450
f 447 	448 	435
f 139 	143 	407
f 92 	407 	143
f 70 	244 	241
f 70 	241 	69
f 245 	20 	443
f 445 	444 	456
f 445 	456 	457
f 73 	246 	244
f 73 	244 	70
f 435 	438 	447
f 438 	194 	447
f 436 	387 	441
f 103 	449 	96
f 459 	181 	176
f 459 	176 	458
f 457 	456 	460
f 457 	460 	461
f 462 	186 	181
f 462 	181 	459
f 444 	441 	387
f 463 	188 	186
f 463 	186 	462
f 461 	460 	464
f 461 	464 	465
f 155 	159 	92
f 455 	92 	159
f 466 	191 	188
f 466 	188 	463
f 374 	330 	371
f 324 	371 	330
f 465 	464 	467
f 465 	467 	469
f 344 	545 	343
f 456 	387 	460
f 94 	542 	217
f 469 	467 	472
f 469 	472 	473
f 257 	542 	260
f 472 	476 	477
f 472 	477 	473
f 475 	488 	474
f 476 	406 	409
f 476 	409 	477
f 280 	268 	674
f 488 	336 	474
f 478 	479 	366
f 407 	343 	545
f 266 	305 	674
f 478 	482 	483
f 478 	483 	479
f 480 	481 	35
f 542 	669 	260
f 282 	260 	669
f 482 	486 	487
f 482 	487 	483
f 284 	282 	669
f 478 	517 	482
f 322 	335 	669
f 669 	674 	322
f 488 	542 	336
f 486 	418 	487
f 485 	703 	484
f 484 	577 	481
f 674 	215 	326
f 703 	577 	484
f 300 	284 	669
f 355 	499 	490
f 335 	339 	669
f 339 	314 	669
f 314 	300 	669
f 480 	35 	491
f 387 	401 	460
f 456 	444 	387
f 486 	387 	418
f 482 	517 	486
f 674 	326 	276
f 276 	275 	674
f 268 	266 	674
f 401 	468 	464
f 464 	460 	401
f 489 	490 	499
f 436 	427 	387
f 387 	486 	517
f 517 	478 	365
f 364 	361 	517
f 152 	155 	92
f 494 	495 	496
f 494 	496 	29
f 453 	454 	165
f 496 	495 	497
f 496 	497 	498
f 452 	453 	167
f 454 	455 	159
f 498 	497 	500
f 498 	500 	501
f 703 	485 	492
f 170 	451 	167
f 501 	500 	502
f 501 	502 	503
f 489 	475 	474
f 489 	474 	490
f 503 	502 	491
f 96 	451 	170
f 490 	474 	355
f 491 	481 	480
f 179 	184 	407
f 502 	506 	491
f 505 	504 	507
f 505 	507 	508
f 184 	139 	407
f 491 	506 	481
f 488 	475 	512
f 371 	512 	475
f 508 	507 	509
f 508 	509 	511
f 510 	492 	485
f 510 	485 	484
f 149 	152 	92
f 165 	167 	453
f 162 	165 	454
f 159 	162 	454
f 146 	149 	92
f 513 	493 	492
f 513 	492 	510
f 511 	509 	494
f 511 	494 	29
f 514 	515 	516
f 514 	516 	517
f 190 	433 	415
f 371 	475 	374
f 499 	519 	489
f 374 	489 	519
f 193 	432 	190
f 518 	520 	515
f 518 	515 	514
f 506 	39 	481
f 430 	431 	200
f 204 	411 	403
f 521 	522 	520
f 521 	520 	518
f 489 	374 	475
f 523 	524 	522
f 523 	522 	521
f 57 	52 	484
f 525 	526 	524
f 525 	524 	523
f 175 	407 	207
f 407 	408 	207
f 390 	388 	558
f 527 	528 	526
f 527 	526 	525
f 383 	382 	567
f 175 	179 	407
f 203 	207 	408
f 408 	410 	203
f 530 	532 	528
f 530 	528 	527
f 533 	470 	531
f 534 	535 	532
f 534 	532 	530
f 471 	470 	536
f 533 	536 	470
f 452 	167 	451
f 143 	146 	92
f 536 	539 	471
f 504 	505 	535
f 504 	535 	534
f 540 	74 	538
f 257 	217 	542
f 545 	206 	544
f 531 	542 	533
f 542 	488 	533
f 512 	533 	488
f 548 	547 	541
f 74 	540 	547
f 512 	536 	533
f 324 	89 	536
f 371 	324 	512
f 536 	512 	324
f 89 	85 	536
f 85 	83 	536
f 83 	80 	536
f 80 	79 	536
f 79 	549 	536
f 549 	550 	536
f 550 	551 	536
f 551 	552 	536
f 552 	553 	536
f 553 	554 	536
f 554 	529 	536
f 539 	536 	529
f 499 	546 	556
f 499 	556 	519
f 263 	254 	507
f 509 	507 	254
f 507 	504 	263
f 278 	263 	504
f 504 	534 	278
f 534 	530 	283
f 307 	283 	530
f 254 	250 	509
f 494 	509 	250
f 250 	249 	494
f 495 	494 	249
f 249 	242 	495
f 497 	495 	242
f 242 	46 	497
f 500 	497 	46
f 471 	539 	470
f 557 	470 	539
f 219 	210 	559
f 558 	559 	210
f 316 	307 	527
f 527 	525 	316
f 525 	523 	331
f 523 	521 	331
f 521 	518 	337
f 341 	337 	518
f 514 	341 	518
f 517 	345 	514
f 359 	357 	517
f 560 	561 	559
f 560 	559 	558
f 562 	563 	561
f 562 	561 	560
f 570 	572 	563
f 570 	563 	562
f 529 	383 	567
f 566 	567 	253
f 568 	529 	567
f 569 	529 	568
f 571 	529 	569
f 573 	529 	571
f 574 	529 	573
f 539 	529 	574
f 565 	566 	253
f 564 	565 	253
f 348 	347 	215
f 347 	351 	215
f 575 	576 	572
f 575 	572 	570
f 502 	39 	506
f 481 	77 	484
f 57 	484 	62
f 52 	398 	484
f 575 	590 	576
f 468 	197 	191
f 468 	191 	466
f 468 	396 	197
f 401 	396 	468
f 220 	197 	396
f 252 	247 	577
f 558 	706 	390
f 510 	394 	513
f 513 	392 	706
f 42 	690 	40
f 40 	690 	229
f 47 	243 	690
f 463 	472 	466
f 466 	467 	468
f 327 	326 	215
f 247 	245 	577
f 351 	327 	215
f 682 	93 	215
f 58 	577 	54
f 472 	463 	476
f 252 	577 	578
f 252 	578 	579
f 252 	579 	580
f 252 	580 	581
f 252 	581 	582
f 252 	582 	564
f 589 	591 	583
f 583 	591 	19
f 467 	464 	468
f 368 	412 	458
f 467 	466 	472
f 587 	588 	586
f 585 	586 	588
f 588 	82 	585
f 82 	81 	585
f 584 	585 	81
f 84 	589 	81
f 86 	589 	84
f 90 	589 	86
f 330 	589 	90
f 374 	589 	330
f 519 	589 	374
f 556 	589 	519
f 584 	81 	589
f 176 	590 	458
f 223 	690 	131
f 233 	20 	591
f 233 	591 	181
f 181 	186 	233
f 181 	591 	176
f 229 	690 	223
f 124 	690 	117
f 594 	576 	593
f 593 	576 	592
f 595 	576 	594
f 596 	572 	595
f 597 	572 	596
f 592 	576 	591
f 556 	598 	589
f 598 	599 	589
f 591 	589 	599
f 219 	559 	267
f 561 	627 	559
f 537 	538 	74
f 5 	6 	68
f 600 	555 	541
f 73 	70 	7
f 623 	624 	563
f 267 	559 	208
f 575 	369 	666
f 666 	368 	458
f 459 	406 	462
f 462 	476 	463
f 572 	623 	563
f 541 	547 	540
f 601 	555 	600
f 199 	195 	603
f 604 	543 	199
f 202 	199 	543
f 543 	544 	202
f 609 	653 	608
f 607 	608 	653
f 605 	606 	653
f 606 	607 	653
f 176 	591 	590
f 208 	559 	627
f 576 	595 	572
f 621 	572 	597
f 169 	166 	640
f 639 	640 	166
f 557 	531 	470
f 615 	653 	614
f 628 	652 	615
f 610 	605 	653
f 614 	653 	613
f 616 	653 	609
f 617 	653 	616
f 618 	653 	617
f 619 	653 	618
f 620 	653 	619
f 622 	653 	620
f 613 	653 	622
f 623 	572 	621
f 590 	591 	576
f 624 	625 	563
f 625 	626 	563
f 561 	563 	626
f 627 	561 	626
f 344 	348 	215
f 529 	583 	383
f 19 	383 	583
f 628 	629 	630
f 628 	630 	631
f 628 	631 	632
f 628 	632 	633
f 628 	633 	634
f 628 	634 	637
f 529 	589 	583
f 640 	641 	95
f 641 	642 	95
f 101 	95 	642
f 642 	643 	101
f 611 	101 	643
f 643 	644 	611
f 612 	611 	644
f 43 	612 	644
f 645 	43 	644
f 118 	43 	645
f 95 	169 	640
f 529 	554 	589
f 554 	553 	584
f 554 	584 	589
f 628 	637 	646
f 628 	646 	647
f 628 	647 	648
f 628 	648 	649
f 628 	649 	650
f 628 	650 	651
f 628 	651 	652
f 653 	615 	652
f 654 	610 	653
f 655 	610 	654
f 553 	552 	585
f 553 	585 	584
f 28 	658 	656
f 552 	551 	586
f 552 	586 	585
f 657 	656 	659
f 610 	659 	656
f 638 	639 	166
f 551 	550 	587
f 551 	587 	586
f 658 	605 	656
f 610 	656 	605
f 550 	549 	588
f 550 	588 	587
f 658 	28 	660
f 549 	79 	82
f 549 	82 	588
f 660 	606 	605
f 660 	605 	658
f 140 	545 	142
f 660 	28 	661
f 661 	607 	606
f 661 	606 	660
f 661 	28 	662
f 662 	608 	607
f 662 	607 	661
f 662 	28 	663
f 662 	663 	609
f 662 	609 	608
f 539 	574 	557
f 663 	664 	609
f 531 	557 	542
f 93 	635 	158
f 161 	158 	636
f 663 	28 	664
f 685 	93 	682
f 384 	380 	560
f 664 	616 	609
f 93 	344 	215
f 164 	161 	636
f 166 	164 	638
f 636 	638 	164
f 664 	28 	665
f 667 	28 	668
f 666 	590 	575
f 664 	665 	617
f 664 	617 	616
f 666 	458 	590
f 206 	545 	174
f 174 	545 	178
f 665 	667 	618
f 665 	618 	617
f 384 	560 	388
f 562 	560 	380
f 668 	524 	670
f 635 	636 	158
f 158 	154 	93
f 151 	93 	154
f 148 	93 	151
f 145 	142 	93
f 667 	668 	619
f 667 	619 	618
f 275 	280 	674
f 305 	322 	674
f 28 	524 	668
f 668 	670 	620
f 668 	620 	619
f 189 	555 	601
f 548 	541 	555
f 545 	344 	93
f 601 	602 	189
f 542 	557 	669
f 574 	669 	557
f 670 	672 	622
f 670 	622 	620
f 195 	192 	602
f 192 	189 	602
f 598 	556 	671
f 546 	671 	556
f 603 	604 	199
f 602 	603 	195
f 672 	31 	613
f 672 	613 	622
f 202 	544 	206
f 31 	673 	614
f 31 	614 	613
f 178 	545 	183
f 574 	573 	674
f 574 	674 	669
f 673 	676 	615
f 673 	615 	614
f 259 	546 	256
f 671 	675 	599
f 671 	599 	598
f 148 	145 	93
f 183 	545 	140
f 685 	689 	93
f 142 	545 	93
f 600 	541 	402
f 628 	615 	676
f 541 	540 	403
f 541 	403 	402
f 702 	659 	610
f 702 	610 	655
f 259 	261 	546
f 540 	538 	404
f 540 	404 	403
f 538 	537 	405
f 538 	405 	404
f 137 	405 	7
f 537 	7 	405
f 676 	505 	677
f 673 	535 	676
f 544 	408 	407
f 544 	407 	545
f 676 	677 	628
f 543 	410 	408
f 543 	408 	544
f 277 	675 	274
f 274 	675 	281
f 599 	213 	591
f 410 	543 	604
f 677 	508 	678
f 571 	215 	674
f 410 	604 	430
f 677 	678 	629
f 677 	629 	628
f 573 	571 	674
f 269 	675 	270
f 281 	675 	269
f 603 	431 	430
f 603 	430 	604
f 678 	511 	679
f 286 	671 	288
f 602 	432 	431
f 602 	431 	603
f 675 	213 	599
f 678 	679 	630
f 678 	630 	629
f 601 	433 	432
f 601 	432 	602
f 302 	671 	286
f 315 	671 	302
f 288 	671 	261
f 684 	92 	688
f 601 	600 	434
f 601 	434 	433
f 679 	29 	681
f 402 	434 	600
f 270 	675 	306
f 92 	93 	688
f 679 	681 	631
f 679 	631 	630
f 547 	411 	74
f 591 	213 	680
f 591 	680 	592
f 681 	496 	683
f 340 	671 	315
f 569 	682 	215
f 569 	215 	571
f 548 	414 	411
f 548 	411 	547
f 681 	683 	632
f 681 	632 	631
f 680 	92 	684
f 325 	671 	333
f 333 	671 	340
f 306 	675 	325
f 683 	35 	686
f 329 	675 	277
f 328 	213 	329
f 546 	261 	671
f 555 	415 	414
f 555 	414 	548
f 683 	686 	633
f 683 	633 	632
f 680 	684 	593
f 680 	593 	592
f 35 	690 	691
f 555 	189 	415
f 190 	415 	189
f 569 	568 	685
f 569 	685 	682
f 686 	35 	687
f 691 	687 	35
f 686 	687 	634
f 686 	634 	633
f 594 	593 	688
f 684 	688 	593
f 690 	692 	691
f 692 	637 	691
f 634 	691 	637
f 435 	103 	611
f 101 	611 	103
f 568 	567 	689
f 568 	689 	685
f 687 	691 	634
f 435 	611 	612
f 435 	612 	438
f 567 	594 	689
f 688 	689 	594
f 692 	693 	637
f 438 	612 	194
f 567 	566 	595
f 594 	567 	595
f 693 	646 	637
f 566 	565 	596
f 566 	596 	595
f 313 	118 	645
f 313 	645 	446
f 693 	694 	647
f 693 	647 	646
f 565 	564 	597
f 565 	597 	596
f 446 	645 	644
f 446 	644 	447
f 694 	695 	648
f 694 	648 	647
f 644 	643 	448
f 644 	448 	447
f 695 	696 	649
f 695 	649 	648
f 343 	407 	92
f 643 	642 	449
f 643 	449 	448
f 696 	697 	650
f 696 	650 	649
f 697 	698 	651
f 697 	651 	650
f 642 	641 	450
f 642 	450 	449
f 621 	597 	582
f 564 	582 	597
f 651 	698 	699
f 651 	699 	652
f 641 	640 	451
f 641 	451 	450
f 582 	581 	623
f 582 	623 	621
f 699 	700 	653
f 699 	653 	652
f 640 	639 	452
f 640 	452 	451
f 690 	481 	577
f 700 	701 	654
f 700 	654 	653
f 638 	453 	452
f 638 	452 	639
f 213 	92 	680
f 701 	702 	655
f 701 	655 	654
f 636 	454 	453
f 636 	453 	638
f 352 	213 	328
f 580 	624 	623
f 580 	623 	581
f 635 	455 	454
f 635 	454 	636
f 350 	213 	352
f 349 	213 	350
f 343 	213 	349
f 93 	92 	455
f 93 	455 	635
f 332 	657 	317
f 579 	625 	624
f 579 	624 	580
f 338 	657 	332
f 285 	657 	279
f 92 	213 	343
f 671 	325 	675
f 675 	329 	213
f 342 	657 	338
f 308 	657 	285
f 346 	657 	342
f 308 	317 	657
f 354 	657 	346
f 578 	626 	625
f 578 	625 	579
f 360 	657 	358
f 362 	657 	360
f 363 	657 	362
f 205 	704 	493
f 626 	578 	703
f 577 	703 	578
f 703 	704 	627
f 703 	627 	626
f 385 	577 	381
f 389 	577 	385
f 393 	577 	391
f 399 	577 	395
f 493 	705 	205
f 54 	577 	399
f 705 	211 	205
f 493 	704 	492
f 370 	577 	367
f 577 	370 	373
f 577 	373 	377
f 377 	381 	577
f 391 	577 	389
f 395 	577 	393
f 703 	492 	704
f 425 	416 	421
f 419 	421 	416
f 706 	705 	493
f 706 	493 	513
f 428 	416 	425
f 442 	416 	437
f 457 	416 	445
f 465 	416 	461
f 627 	205 	208
f 487 	416 	483
f 657 	483 	416
f 479 	483 	657
f 704 	205 	627
f 419 	416 	487
f 428 	437 	416
f 445 	416 	442
f 461 	416 	457
f 705 	210 	211
f 413 	367 	416
f 577 	416 	367
f 657 	363 	366
f 366 	479 	657
f 657 	690 	265
f 279 	657 	265
f 358 	657 	354
f 558 	210 	706
f 705 	706 	210
f 58 	63 	577
f 577 	63 	67
f 67 	72 	577
f 76 	78 	577
f 72 	76 	577
f 690 	577 	78
f 690 	78 	112
f 690 	112 	117
f 124 	131 	690
f 42 	47 	690
f 378 	567 	379
f 376 	567 	378
f 262 	567 	376
f 258 	567 	262
f 382 	379 	567
f 253 	567 	258
f 252 	564 	253
f 443 	440 	577
f 245 	443 	577
f 416 	465 	469
f 267 	208 	211
f 205 	211 	208
f 469 	473 	416
f 439 	577 	440
f 429 	577 	439
f 426 	577 	429
f 423 	577 	426
f 422 	577 	423
f 416 	577 	422
f 477 	409 	416
f 473 	477 	416
f 409 	413 	416
f 659 	702 	657
f 255 	265 	690
f 251 	255 	690
f 701 	657 	702
f 243 	248 	690
f 690 	657 	692
f 248 	251 	690
f 700 	657 	701
f 699 	657 	700
f 698 	657 	699
f 697 	657 	698
f 696 	657 	697
f 695 	657 	696
f 693 	657 	694
f 692 	657 	693
f 694 	657 	695
f 657 	416 	517
f 387 	517 	416
f 516 	28 	517
f 657 	517 	28
f 656 	657 	28
f 690 	35 	481
f 498 	501 	683
f 498 	683 	496
f 35 	683 	501
f 503 	35 	501
f 491 	35 	503
f 511 	678 	508
f 29 	679 	511
f 520 	28 	515
f 522 	28 	520
f 516 	515 	28
f 524 	28 	522
f 526 	670 	524
f 528 	672 	526
f 532 	31 	528
f 505 	676 	535
f 508 	677 	505
f 535 	673 	532
# 1416 faces

 #end of obj_0

