# Object Export From Tinkercad Server 2015

mtllib obj.mtl

o obj_0
v -29 		2 		50
v -29 		2 		0
v 11 		2 		0
v 11 		2 		50
v 11 		42 		50
v 11 		42 		0
v -29 		42 		0
v -29 		42 		50
v 11 		22 		65
v -29 		22 		65
# 10 vertices

g group_0_16448250

usemtl color_16448250
s 0

f 1 	2 	3
f 1 	3 	4
f 5 	6 	7
f 5 	7 	8
f 5 	9 	4
f 1 	10 	8
f 8 	7 	2
f 8 	2 	1
f 9 	5 	8
f 9 	8 	10
f 4 	3 	6
f 4 	6 	5
f 2 	7 	6
f 2 	6 	3
f 9 	10 	1
f 9 	1 	4
# 16 faces

 #end of obj_0

o obj_1
v 15 		48 		47.75
v 15 		22 		66.7682
v 15 		47.3502 		47.75
v 15 		-3.3502 		47.75
v 15 		22 		67.25
v 15 		-4 		47.75
v 14.5294 		-3.4902 		47.75
v 14.5294 		-3.3502 		47.75
v 14.5294 		47.3502 		47.75
v 14.5294 		47.4902 		47.75
v 14.5294 		22 		66.7682
v -33 		47.3502 		47.75
v -33 		22 		66.7682
v -33 		48 		47.75
v -33 		22 		67.25
v -33 		-3.3502 		47.75
v -33 		-4 		47.75
v -32.5294 		47.3502 		47.75
v -32.5294 		47.4902 		47.75
v 14.5294 		22 		64.0057
v 14.5294 		43.6678 		47.75
v 14.5294 		0.3322 		47.75
v -32.5294 		-3.3502 		47.75
v -32.5294 		-3.4902 		47.75
v -32.5294 		22 		66.7682
v -32.5294 		43.6678 		47.75
v -32.5294 		22 		64.0057
v -32.5294 		0.3322 		47.75
# 28 vertices

g group_1_6306067

usemtl color_6306067
s 0

f 12 	13 	11
f 11 	15 	12
f 15 	16 	12
f 14 	12 	16
f 18 	14 	17
f 16 	17 	14
f 13 	19 	20
f 13 	20 	11
f 22 	23 	24
f 19 	13 	21
f 12 	21 	13
f 25 	24 	23
f 26 	27 	23
f 25 	23 	27
f 21 	12 	14
f 21 	14 	18
f 24 	29 	22
f 28 	22 	29
f 33 	34 	26
f 27 	26 	34
f 28 	35 	23
f 28 	23 	22
f 23 	35 	33
f 23 	33 	26
f 16 	27 	34
f 16 	34 	17
f 15 	24 	25
f 20 	29 	24
f 20 	24 	11
f 15 	11 	24
f 15 	25 	27
f 15 	27 	16
# 32 faces

g group_1_16448250

usemtl color_16448250
s 0

f 31 	19 	30
f 21 	30 	19
f 18 	32 	30
f 18 	30 	21
f 35 	28 	37
f 36 	37 	28
f 38 	33 	37
f 35 	37 	33
f 30 	37 	36
f 30 	36 	31
f 31 	36 	28
f 29 	20 	28
f 20 	19 	28
f 31 	28 	19
f 37 	30 	32
f 37 	32 	38
f 17 	34 	33
f 38 	32 	33
f 32 	18 	33
f 17 	33 	18
# 20 faces

 #end of obj_1

