# Object Export From Tinkercad Server 2015

mtllib obj.mtl

o obj_0
v 29.9384 		-76.0616 		46.194
v 25.319 		-76.0616 		48.1074
v 10.8042 		-76.0616 		0
v 6.1848 		-76.0616 		1.9134
v 10.8042 		23.9384 		0
v 6.1848 		23.9384 		1.9134
v 29.9384 		23.9384 		46.194
v 25.319 		23.9384 		48.1074
# 8 vertices

g group_0_6383466

usemtl color_6383466
s 0

f 1 	2 	3
f 2 	4 	3
f 5 	6 	7
f 6 	8 	7
f 5 	7 	3
f 7 	1 	3
f 8 	6 	2
f 6 	4 	2
f 7 	8 	1
f 8 	2 	1
f 3 	4 	5
f 4 	6 	5
# 12 faces

 #end of obj_0

o obj_1
v -37.9384 		-76.0616 		6
v -37.9384 		-76.0616 		1
v 12.0616 		-76.0616 		6
v 12.0616 		-76.0616 		1
v 12.0616 		23.9384 		6
v 12.0616 		23.9384 		1
v -37.9384 		23.9384 		6
v -37.9384 		23.9384 		1
# 8 vertices

g group_1_6383466

usemtl color_6383466
s 0

f 9 	10 	11
f 10 	12 	11
f 13 	14 	15
f 14 	16 	15
f 13 	15 	11
f 15 	9 	11
f 16 	14 	10
f 14 	12 	10
f 15 	16 	9
f 16 	10 	9
f 11 	12 	13
f 12 	14 	13
# 12 faces

 #end of obj_1

